<?xml version="1.0" encoding="UTF-8"?>
<svg xmlns="http://www.w3.org/2000/svg" xmlns:xlink="http://www.w3.org/1999/xlink" width="13pt" height="12pt" viewBox="0 0 13 12" version="1.1">
<g id="surface1">
<path style=" stroke:none;fill-rule:nonzero;fill:rgb(27.843137%,45.882353%,72.54902%);fill-opacity:1;" d="M 6.574219 12 C 3.078125 12 0.230469 10.5625 0.230469 8.796875 L 1.488281 8.796875 C 1.488281 10.09375 3.769531 11.148438 6.574219 11.148438 C 9.378906 11.148438 11.660156 10.09375 11.660156 8.796875 L 12.914062 8.796875 C 12.914062 10.5625 10.070312 12 6.574219 12 Z M 6.574219 12 "/>
<path style=" stroke:none;fill-rule:nonzero;fill:rgb(27.843137%,45.882353%,72.54902%);fill-opacity:1;" d="M 12.914062 3.203125 L 11.660156 3.203125 C 11.660156 1.90625 9.378906 0.851562 6.574219 0.851562 C 3.769531 0.851562 1.488281 1.90625 1.488281 3.203125 L 0.230469 3.203125 C 0.230469 1.4375 3.078125 0 6.574219 0 C 10.070312 0 12.914062 1.4375 12.914062 3.203125 Z M 12.914062 3.203125 "/>
<path style=" stroke:none;fill-rule:nonzero;fill:rgb(38.823529%,72.941176%,56.470588%);fill-opacity:1;" d="M 8.34375 7.261719 L 1.808594 4.054688 L 1.074219 4.742188 L 7.605469 7.949219 Z M 8.34375 7.261719 "/>
<path style=" stroke:none;fill-rule:nonzero;fill:rgb(38.823529%,72.941176%,56.470588%);fill-opacity:1;" d="M 12.125 7.253906 L 5.589844 4.046875 L 4.855469 4.738281 L 11.386719 7.945312 Z M 12.125 7.253906 "/>
</g>
</svg>
